<?xml version="1.0" encoding="UTF-8" standalone="no"?>
<!-- Created with Inkscape (http://www.inkscape.org/) -->

<svg
   width="92"
   height="52"
   viewBox="0 0 24.341666 13.758334"
   version="1.1"
   id="svg5"
   inkscape:version="1.1 (c68e22c387, 2021-05-23)"
   sodipodi:docname="logo.svg"
   xmlns:inkscape="http://www.inkscape.org/namespaces/inkscape"
   xmlns:sodipodi="http://sodipodi.sourceforge.net/DTD/sodipodi-0.dtd"
   xmlns:xlink="http://www.w3.org/1999/xlink"
   xmlns="http://www.w3.org/2000/svg"
   xmlns:svg="http://www.w3.org/2000/svg">
  <sodipodi:namedview
     id="namedview7"
     pagecolor="#ffffff"
     bordercolor="#666666"
     borderopacity="1.0"
     inkscape:pageshadow="2"
     inkscape:pageopacity="0.0"
     inkscape:pagecheckerboard="0"
     inkscape:document-units="mm"
     showgrid="false"
     units="px"
     inkscape:zoom="7.9024555"
     inkscape:cx="50.870264"
     inkscape:cy="21.322486"
     inkscape:window-width="1920"
     inkscape:window-height="1017"
     inkscape:window-x="-8"
     inkscape:window-y="-8"
     inkscape:window-maximized="1"
     inkscape:current-layer="layer1" />
  <defs
     id="defs2">
    <linearGradient
       inkscape:collect="always"
       id="linearGradient24004">
      <stop
         style="stop-color:#ffffff;stop-opacity:1;"
         offset="0"
         id="stop24000" />
      <stop
         style="stop-color:#ffffff;stop-opacity:0;"
         offset="1"
         id="stop24002" />
    </linearGradient>
    <linearGradient
       id="linearGradient23150"
       inkscape:swatch="solid">
      <stop
         style="stop-color:#fefcfd;stop-opacity:1;"
         offset="0"
         id="stop23148" />
    </linearGradient>
    <linearGradient
       inkscape:collect="always"
       id="linearGradient16070">
      <stop
         style="stop-color:#000000;stop-opacity:1;"
         offset="0"
         id="stop16066" />
      <stop
         style="stop-color:#000000;stop-opacity:0;"
         offset="1"
         id="stop16068" />
    </linearGradient>
    <linearGradient
       id="linearGradient11100"
       inkscape:swatch="gradient">
      <stop
         style="stop-color:#000000;stop-opacity:1;"
         offset="0"
         id="stop11096" />
      <stop
         style="stop-color:#000000;stop-opacity:0;"
         offset="1"
         id="stop11098" />
    </linearGradient>
    <linearGradient
       id="linearGradient8706"
       inkscape:swatch="solid">
      <stop
         style="stop-color:#000000;stop-opacity:1;"
         offset="0"
         id="stop8704" />
    </linearGradient>
    <radialGradient
       inkscape:collect="always"
       xlink:href="#linearGradient16070"
       id="radialGradient16074"
       cx="8.7056599"
       cy="5.9247794"
       fx="8.7056599"
       fy="5.9247794"
       r="4.8953457"
       gradientTransform="matrix(1,0,0,1.0119415,-0.60266077,8.5004249)"
       gradientUnits="userSpaceOnUse" />
    <linearGradient
       inkscape:collect="always"
       xlink:href="#linearGradient24004"
       id="linearGradient24006"
       x1="3.2263734"
       y1="10.687127"
       x2="21.282644"
       y2="10.687127"
       gradientUnits="userSpaceOnUse" />
  </defs>
  <g
     inkscape:label="圖層 1"
     inkscape:groupmode="layer"
     id="layer1">
    <rect
       style="fill:#00c3ff;fill-opacity:1;fill-rule:evenodd;stroke-width:0.264583"
       id="rect28"
       width="24.374281"
       height="13.760755"
       x="-0.033481151"
       y="-0.033481151"
       ry="0.26784924" />
    <g
       id="g1132"
       transform="matrix(0.01654528,0,0,0.01615308,7.2988725,0.53613709)">
      <g
         id="g1128">
        <path
           d="M 462,210.014 H 50 c -22.091,0 -40,-17.909 -40,-40 v -120 c 0,-22.091 17.909,-40 40,-40 h 412 c 22.091,0 40,17.909 40,40 v 120 c 0,22.091 -17.909,40 -40,40 z"
           fill="#ff7d99"
           id="path1102" />
        <g
           id="g1110">
          <g
             id="g1108">
            <g
               id="g1106">
              <path
                 d="m 293.786,501.986 -8.943,-33.376 -4.39,-1.597 c -47.23,-17.181 -87.607,-49.229 -115.06,-91.327 -5.872,-9.004 -5.32,-20.755 1.37,-29.169 8.185,-10.294 22.953,-12.471 33.76,-4.977 l 32.484,22.525 -40.024,-149.371 c -3.289,-12.275 3.996,-24.893 16.271,-28.182 12.275,-3.289 24.893,3.996 28.182,16.271 l 34.724,129.592 5.843,21.807 -20.399,-76.131 c -3.289,-12.275 3.996,-24.893 16.271,-28.182 12.275,-3.289 24.893,3.996 28.182,16.271 l 17.533,65.433 2.867,10.698 -16.517,-61.644 c -3.289,-12.275 3.996,-24.893 16.271,-28.182 12.275,-3.289 24.893,3.996 28.182,16.271 l 13.651,50.946 2.867,10.698 -9.692,-36.171 c -3.289,-12.275 3.996,-24.893 16.271,-28.182 12.275,-3.289 24.893,3.996 28.182,16.271 l 22.965,85.705 c 5.561,20.755 2.957,42.853 -7.277,61.746 l 9.787,36.525 z"
                 fill="#ffd1c8"
                 id="path1104" />
            </g>
          </g>
        </g>
        <g
           id="g1126">
          <path
             d="M 462,0.014 H 50 c -27.57,0 -50,22.43 -50,50 v 120 c 0,27.57 22.43,50 50,50 h 134.057 l 32.231,120.289 -10.066,-6.98 c -15.087,-10.461 -35.858,-7.4 -47.286,6.971 -9.385,11.805 -10.157,28.223 -1.919,40.855 28.353,43.477 70.78,77.226 119.516,95.078 l 7.595,28.348 c 0.687,2.562 2.362,4.746 4.659,6.072 1.533,0.886 3.26,1.34 5,1.34 0.867,0 1.736,-0.112 2.588,-0.341 l 133.359,-35.733 c 2.562,-0.687 4.746,-2.362 6.072,-4.659 1.326,-2.297 1.686,-5.026 0.999,-7.588 l -8.789,-32.8 c 9.934,-20.373 12.177,-43.464 6.279,-65.472 L 411.33,279.689 c -2.282,-8.518 -7.744,-15.636 -15.38,-20.045 -7.636,-4.407 -16.531,-5.579 -25.05,-3.298 -4.548,1.219 -8.615,3.342 -12.072,6.116 -6.094,-15.337 -22.887,-24.052 -39.206,-19.677 -5.523,1.48 -10.451,4.304 -14.441,8.183 -7.992,-9.561 -21.088,-14.192 -33.894,-10.759 -4.461,1.195 -8.461,3.258 -11.875,5.954 l -7.006,-26.148 H 367.5 c 5.522,0 10,-4.478 10,-10 0,-5.522 -4.478,-10 -10,-10 H 247.043 c -2.31,-8.437 -7.745,-15.486 -15.327,-19.864 -7.637,-4.409 -16.533,-5.581 -25.049,-3.297 -8.517,2.282 -15.636,7.744 -20.044,15.38 -1.431,2.479 -2.515,5.092 -3.257,7.781 H 50 c -16.542,0 -30,-13.458 -30,-30 v -120 c 0,-16.542 13.458,-30 30,-30 h 412 c 16.542,0 30,13.458 30,30 v 120 c 0,16.542 -13.458,30 -30,30 h -4.499 c -5.522,0 -10,4.478 -10,10 0,5.522 4.478,10 10,10 H 462 c 27.57,0 50,-22.43 50,-50 v -120 C 512,22.443 489.57,0.014 462,0.014 Z M 203.943,202.232 c 1.738,-3.009 4.543,-5.162 7.901,-6.062 3.357,-0.901 6.863,-0.438 9.872,1.299 3.01,1.738 5.163,4.544 6.062,7.9 l 40.567,151.398 c 1.197,4.468 5.237,7.415 9.653,7.415 0.856,0 1.728,-0.111 2.594,-0.344 5.335,-1.43 8.501,-6.913 7.071,-12.247 l -20.401,-76.14 c -1.851,-6.927 2.275,-14.071 9.202,-15.927 6.936,-1.854 14.078,2.271 15.935,9.199 l 20.399,76.132 c 1.197,4.468 5.237,7.415 9.653,7.415 0.856,0 1.728,-0.111 2.594,-0.344 5.335,-1.43 8.501,-6.913 7.071,-12.247 l -16.519,-61.65 c -1.852,-6.927 2.274,-14.073 9.202,-15.929 3.357,-0.898 6.863,-0.438 9.873,1.3 3.009,1.738 5.162,4.544 6.062,7.9 l 16.518,61.644 c 1.43,5.335 6.915,8.501 12.247,7.071 5.335,-1.43 8.501,-6.913 7.071,-12.247 l -9.694,-36.18 c -1.85,-6.927 2.276,-14.07 9.202,-15.926 3.357,-0.898 6.862,-0.438 9.873,1.3 3.009,1.738 5.162,4.544 6.062,7.9 l 22.965,85.705 c 4.92,18.362 2.644,37.68 -6.411,54.396 -1.219,2.249 -1.528,4.88 -0.866,7.351 l 7.199,26.866 -114.041,30.558 -6.354,-23.718 c -0.845,-3.152 -3.175,-5.694 -6.241,-6.81 l -4.39,-1.597 c -44.901,-16.333 -84.003,-47.37 -110.103,-87.392 -3.525,-5.406 -3.195,-12.432 0.822,-17.483 4.888,-6.149 13.776,-7.463 20.234,-2.982 l 32.484,22.524 0.004,-0.006 c 1.648,1.141 3.624,1.792 5.688,1.792 0.856,0 1.728,-0.111 2.595,-0.344 5.334,-1.43 8.5,-6.913 7.071,-12.247 L 202.645,212.104 c -0.901,-3.356 -0.439,-6.862 1.298,-9.872 z"
             id="path1112" />
          <path
             d="m 289.942,70.014 v 46.592 l -32.495,-51.76 c -2.37,-3.774 -6.952,-5.529 -11.236,-4.292 -4.283,1.232 -7.233,5.152 -7.233,9.609 v 79.851 c 0,5.522 4.477,10 10,10 5.523,0 10,-4.478 10,-10 v -45.115 l 30.615,48.767 c 2.785,4.425 7.642,6.401 12.376,5.036 4.843,-1.396 7.973,-5.865 7.973,-11.384 V 70.014 c 0,-5.522 -4.478,-10 -10,-10 -5.522,0 -10,4.477 -10,10 z"
             id="path1114" />
          <path
             d="m 113.667,70.014 v 80 c 0,5.522 4.477,10 10,10 5.523,0 10,-4.478 10,-10 v -80 c 0,-5.522 -4.477,-10 -10,-10 -5.523,0 -10,4.477 -10,10 z"
             id="path1116" />
          <path
             d="m 188.057,80.014 c 6.013,0 11.811,1.77 16.767,5.118 4.577,3.092 10.793,1.887 13.884,-2.689 3.091,-4.577 1.887,-10.793 -2.689,-13.885 -8.275,-5.589 -17.945,-8.544 -27.962,-8.544 -27.57,0 -50,22.43 -50,50 0,27.57 22.43,50 50,50 26.219,0 44.53,-20.561 44.53,-50 0,-5.522 -4.477,-10 -10,-10 h -23.932 c -5.523,0 -10,4.478 -10,10 0,5.522 4.477,10 10,10 h 12.775 c -2.552,10.601 -9.566,20 -23.374,20 -16.542,0 -30,-13.458 -30,-30 0,-16.542 13.459,-30 30.001,-30 z"
             id="path1118" />
          <path
             d="m 75.097,140.014 c -6.89,0 -13.646,-2.438 -18.538,-6.688 -4.169,-3.624 -10.485,-3.181 -14.107,0.988 -3.623,4.169 -3.18,10.485 0.989,14.107 8.602,7.476 19.844,11.592 31.656,11.592 16.859,0 31.017,-10.758 33.664,-25.58 1.991,-11.154 -3.072,-25.726 -23.256,-33.171 C 75.679,97.637 66.53,93.69 63.722,92.46 c -2.177,-1.75 -2.104,-4.188 -1.958,-5.205 0.203,-1.412 1.229,-4.863 6.364,-6.41 11.274,-3.397 21.732,4.862 22.016,5.09 4.228,3.508 10.499,2.945 14.037,-1.264 3.554,-4.228 3.007,-10.536 -1.22,-14.09 C 102.206,69.947 84.215,55.112 62.358,61.694 51.313,65.022 43.5,73.728 41.966,84.414 c -1.439,10.026 2.907,19.671 11.342,25.17 0.442,0.288 12.867,5.866 25.274,10.442 3.507,1.294 11.551,4.945 10.489,10.892 -0.798,4.471 -6.243,9.096 -13.974,9.096 z"
             id="path1120" />
          <path
             d="m 348.076,60.014 c -5.522,0 -10,4.478 -10,10 v 59.353 c 0,10.616 5.047,19.225 15.002,25.585 5.245,3.351 11.157,5.054 17.571,5.062 h 0.052 c 5.51,0 10.689,-1.201 15.396,-3.57 11.594,-5.84 17.979,-15.473 17.979,-27.125 V 70.014 c 0,-5.522 -4.478,-10 -10,-10 -5.522,0 -10,4.478 -10,10 v 59.305 c 0,2.843 -0.829,6.167 -6.974,9.262 -1.916,0.965 -4.01,1.434 -6.401,1.434 -0.008,0 -0.017,0 -0.024,0 -2.583,-0.004 -4.818,-0.631 -6.832,-1.917 -4.804,-3.069 -5.769,-5.616 -5.769,-8.73 V 70.014 c 0,-5.523 -4.477,-10 -10,-10 z"
             id="path1122" />
          <circle
             cx="412.5"
             cy="210.01401"
             r="10"
             id="circle1124" />
        </g>
      </g>
      <path
         d="m 439.31,60.014 h -17.275 c -2.657,0 -5.206,1.058 -7.082,2.94 -1.869,1.874 -2.917,4.413 -2.917,7.06 h -10e-4 v 80 c 0,5.522 4.478,10 10,10 5.522,0 10,-4.478 10,-10 v -24.821 c 2.571,-0.015 5.203,-0.027 7.275,-0.027 18.206,0 33.019,-14.613 33.019,-32.576 0,-17.963 -14.813,-32.576 -33.019,-32.576 z m 0,45.152 c -2.053,0 -4.638,0.011 -7.175,0.025 -0.023,-4.621 -0.058,-20.346 -0.071,-25.178 h 7.246 c 7.057,0 13.019,5.759 13.019,12.576 0,6.817 -5.963,12.577 -13.019,12.577 z"
         id="path1130" />
    </g>
    <text
       xml:space="preserve"
       style="font-style:normal;font-variant:normal;font-weight:normal;font-stretch:normal;font-size:4.23333px;line-height:1.25;font-family:'Microsoft YaHei';-inkscape-font-specification:'Microsoft YaHei, Normal';font-variant-ligatures:normal;font-variant-caps:normal;font-variant-numeric:normal;font-variant-east-asian:normal;letter-spacing:0.449792px;word-spacing:0px;fill:#ffffff;fill-opacity:1;stroke:#1e1cb4;stroke-width:0.4;stroke-linecap:square;stroke-linejoin:miter;stroke-miterlimit:4;stroke-dasharray:none;stroke-opacity:0.36129;paint-order:markers stroke fill"
       x="3.2811532"
       y="12.555433"
       id="text3664"><tspan
         sodipodi:role="line"
         id="tspan21240"
         style="font-style:normal;font-variant:normal;font-weight:normal;font-stretch:normal;font-size:4.23333px;font-family:'Microsoft YaHei';-inkscape-font-specification:'Microsoft YaHei, Normal';font-variant-ligatures:normal;font-variant-caps:normal;font-variant-numeric:normal;font-variant-east-asian:normal;fill:#ffffff;fill-opacity:1;stroke:#1e1cb4;stroke-width:0.4;stroke-linecap:square;stroke-linejoin:miter;stroke-miterlimit:4;stroke-dasharray:none;stroke-opacity:0.36129;paint-order:markers stroke fill"
         x="3.2811532"
         y="12.555433">活動報名</tspan></text>
  </g>
</svg>
